<svg width="84" height="22" viewBox="0 0 84 22" fill="none" xmlns="http://www.w3.org/2000/svg">
<g clip-path="url(#clip0_6_17)">
<path d="M20.9357 7.93517C20.851 8.28035 18.3396 8.13108 15.9975 8.37364C15.8093 8.29901 15.6118 8.2337 15.3955 8.17773C12.9499 7.47804 9.26265 8.10309 6.70417 9.42784C8.64185 7.99114 11.6612 6.33988 14.4266 6.26524C19.1297 6.15329 21.0486 7.45938 20.9357 7.93517Z" fill="url(#paint0_linear_6_17)"/>
<path d="M15.9975 9.49314C15.9975 9.49314 12.9875 7.94449 9.50721 10.8086C6.02693 13.6726 5.0581 17.6095 5.78237 18.0853C6.50664 18.5611 7.34379 15.1 10.5983 12.721C12.5266 11.303 15.292 10.1369 16.7311 12.1426C18.2832 13.1688 15.9975 9.49314 15.9975 9.49314Z" fill="url(#paint1_linear_6_17)"/>
<path d="M18.048 17.4882C18.048 17.4882 18.7441 9.29722 11.0028 9.81033C10.1562 9.87563 8.98047 10.3887 7.8141 10.9018C6.1398 11.6482 4.86997 11.7415 4.70066 11.5269C4.55016 11.331 5.37791 10.4354 6.71358 9.43716C9.26265 8.11242 12.9499 7.47803 15.3955 8.18705C15.6024 8.24302 15.7999 8.30833 15.9975 8.38296C17.9257 9.10131 19.0451 10.3981 19.3649 12.2452C19.9857 15.7157 18.65 17.964 18.048 17.4882Z" fill="url(#paint2_linear_6_17)"/>
<path d="M14.436 5.43495C15.5633 5.43495 16.4772 4.52858 16.4772 3.41051C16.4772 2.29245 15.5633 1.38608 14.436 1.38608C13.3088 1.38608 12.3949 2.29245 12.3949 3.41051C12.3949 4.52858 13.3088 5.43495 14.436 5.43495Z" fill="#0E44E1"/>
<path d="M1.06988 19.5407C1.06988 19.5407 10.8335 23.3283 20.3901 19.9605C25.6952 18.0946 26.4947 16.462 25.0462 16.7979C19.1297 18.1973 9.75177 19.6246 4.42788 18.8037C-1.16879 17.936 -0.0870765 18.8503 1.06988 19.5407Z" fill="url(#paint3_linear_6_17)"/>
<path d="M33.0226 3.08398C33.3612 3.21459 33.6811 3.38251 33.9632 3.60641L33.6811 3.98891C33.4271 3.80233 33.1543 3.64373 32.8627 3.53178C32.5805 3.43849 32.2795 3.39184 31.9785 3.39184C31.527 3.39184 31.1602 3.49446 30.8874 3.69971C30.6146 3.89562 30.4547 4.21281 30.4736 4.54866C30.4547 4.8472 30.5958 5.12707 30.831 5.30433C31.0661 5.48158 31.4894 5.64951 32.1008 5.81743C32.8439 6.01334 33.3612 6.24657 33.6811 6.51712C34.0009 6.78767 34.1514 7.18882 34.1514 7.72059C34.1702 8.23369 33.935 8.72814 33.5211 9.04533C33.0979 9.37185 32.5617 9.53978 31.9127 9.53978C31.48 9.54911 31.0567 9.47447 30.6617 9.32521C30.2948 9.17594 29.9656 8.9707 29.6646 8.71881L29.9844 8.35497C30.2478 8.56954 30.5488 8.7468 30.8686 8.8774C31.1978 8.99868 31.5553 9.05466 31.9033 9.04533C32.3924 9.04533 32.7969 8.93338 33.1073 8.70015C33.4083 8.46692 33.587 8.10308 33.5682 7.72991C33.5776 7.49668 33.5306 7.26346 33.4177 7.05821C33.2954 6.8623 33.1167 6.71303 32.9003 6.62907C32.5523 6.47047 32.1949 6.34919 31.828 6.2559C31.1414 6.07865 30.6429 5.85475 30.3513 5.59353C30.0503 5.32298 29.8904 4.94049 29.9092 4.54866C29.8998 4.0822 30.1255 3.64373 30.5018 3.37318C30.8968 3.06532 31.3954 2.91605 31.9879 2.91605C32.3266 2.90672 32.684 2.9627 33.0226 3.08398Z" fill="#0E44E1"/>
<path d="M39.3153 9.39985H38.8356L38.798 8.21504C38.2995 9.09199 37.5846 9.53046 36.6722 9.53046C36.089 9.53046 35.6375 9.36253 35.3271 9.02668C35.0073 8.69083 34.8568 8.20571 34.8568 7.58066V3.02802H35.4212V7.53401C35.4212 8.05645 35.5341 8.43894 35.7692 8.6815C36.0044 8.92406 36.343 9.04534 36.7945 9.04534C37.5846 9.04534 38.243 8.58821 38.7604 7.67395V3.02802H39.3248L39.3153 9.39985Z" fill="#0E44E1"/>
<path d="M43.3788 2.98137L43.2659 3.50381C43.0778 3.44783 42.8897 3.42917 42.7016 3.42917C42.2877 3.41984 41.8832 3.5971 41.6105 3.91429C41.3377 4.23148 41.1119 4.73526 40.9238 5.41629V9.39985H40.3594V3.02802H40.8486L40.8862 4.50203C41.0555 3.96094 41.2906 3.55045 41.5916 3.28923C41.9115 3.01869 42.3159 2.88808 42.7298 2.89741C42.9649 2.90674 43.1813 2.9254 43.3788 2.98137Z" fill="#0E44E1"/>
<path d="M45.5234 1.95515V3.02801H47.273L47.1883 3.5038H45.5328V9.39985H44.9685V3.51313H43.8679V3.03734H44.959V1.9365C44.959 1.45138 45.1095 1.05955 45.4199 0.779677C45.7304 0.499801 46.1442 0.359863 46.671 0.359863C47.1789 0.359863 47.6868 0.481143 48.1477 0.705043L47.9408 1.13419C47.5551 0.956931 47.1319 0.863639 46.6992 0.85431C45.9091 0.844981 45.5234 1.21815 45.5234 1.95515Z" fill="#0E44E1"/>
<path d="M52.879 3.75569C53.2835 4.32477 53.4904 5.12708 53.4904 6.18128C53.4904 7.23547 53.2835 8.05644 52.8602 8.64418C52.4369 9.24125 51.8444 9.53978 51.0825 9.53978C50.7062 9.54911 50.33 9.45582 50.0007 9.26924C49.6809 9.09198 49.4082 8.84942 49.1918 8.56022L49.126 9.39985H48.6369V0.434497L49.2012 0.359863V3.9516C49.728 3.26124 50.3864 2.91606 51.1765 2.91606C51.9008 2.90673 52.4746 3.19594 52.879 3.75569ZM52.3993 8.31766C52.7285 7.83254 52.8884 7.11419 52.8884 6.18128C52.8884 5.24836 52.7379 4.54867 52.4275 4.08221C52.1171 3.61575 51.675 3.38252 51.0825 3.38252C50.7156 3.37319 50.3582 3.47581 50.0478 3.67172C49.7186 3.89563 49.427 4.18483 49.2012 4.51135V8.00047C49.4082 8.30833 49.6715 8.56955 49.9913 8.76546C50.2923 8.95204 50.6404 9.04534 50.9978 9.04534C51.5622 9.07332 52.0983 8.79345 52.3993 8.31766Z" fill="#0E44E1"/>
<path d="M58.7391 3.77435C59.2094 4.34343 59.4445 5.15507 59.4445 6.19994C59.4445 7.24481 59.2094 8.06578 58.7297 8.65352C58.25 9.25059 57.6009 9.53979 56.7732 9.53979C55.9454 9.53979 55.2964 9.24126 54.8261 8.65352C54.3558 8.06578 54.1207 7.25414 54.1207 6.22793C54.1207 5.20172 54.3652 4.39008 54.8449 3.79301C55.3246 3.20527 55.9737 2.90674 56.792 2.90674C57.6197 2.90674 58.2688 3.19594 58.7391 3.77435ZM55.2588 4.12886C54.892 4.61398 54.7038 5.31367 54.7038 6.23726C54.7038 7.14219 54.8826 7.83255 55.2494 8.327C55.6068 8.81211 56.1148 9.05467 56.7732 9.05467C57.4222 9.05467 57.9301 8.81211 58.297 8.327C58.6638 7.84188 58.852 7.13286 58.852 6.19994C58.852 5.28568 58.6732 4.59532 58.3064 4.11953C57.9396 3.64374 57.4316 3.40119 56.7826 3.40119C56.1336 3.40119 55.6256 3.64374 55.2588 4.12886Z" fill="#0E44E1"/>
<path d="M64.6744 8.79345C64.7684 8.95204 64.9095 9.07332 65.0882 9.13863L64.9471 9.53978C64.7026 9.48381 64.4768 9.36253 64.3169 9.17595C64.1758 9.00802 64.0818 8.75613 64.0536 8.42028C63.5833 9.16662 62.906 9.53978 62.0218 9.53978C61.4104 9.53978 60.9307 9.37186 60.5827 9.01735C60.2347 8.67217 60.0559 8.21504 60.0559 7.63663C60.0559 6.98359 60.2911 6.47981 60.7614 6.1253C61.2317 5.77079 61.8619 5.59354 62.6709 5.59354H63.9877V4.92184C63.9877 4.39007 63.8654 4.00758 63.6303 3.76502C63.3951 3.52246 63.0001 3.40118 62.4451 3.40118C61.9278 3.40118 61.3446 3.53179 60.6956 3.78368L60.5357 3.32655C61.2505 3.04667 61.8995 2.91606 62.4921 2.91606C63.1976 2.91606 63.7149 3.08399 64.0442 3.41984C64.3734 3.75569 64.5427 4.24081 64.5427 4.89385V8.02846C64.5521 8.38296 64.5897 8.63485 64.6744 8.79345ZM63.9783 7.8512V6.03201H62.7461C62.0689 6.03201 61.5609 6.16262 61.1941 6.42384C60.8366 6.68505 60.6485 7.08621 60.6485 7.61797C60.6485 8.0751 60.7708 8.42961 61.0248 8.6815C61.2787 8.93339 61.6268 9.064 62.0783 9.064C62.9154 9.064 63.5456 8.65351 63.9783 7.8512Z" fill="#0E44E1"/>
<path d="M69.0953 2.98137L68.9824 3.50381C68.7943 3.44783 68.6061 3.42917 68.418 3.42917C67.9947 3.41051 67.5997 3.5971 67.3269 3.91429C67.0541 4.23148 66.8284 4.73526 66.6497 5.42562V9.40918H66.0853V3.02802H66.5744L66.612 4.50203C66.7813 3.96094 67.0165 3.55045 67.3175 3.28923C67.6373 3.01869 68.0418 2.88808 68.4556 2.89741C68.672 2.90674 68.8883 2.9254 69.0953 2.98137Z" fill="#0E44E1"/>
<path d="M74.2781 0.434497V9.39985H73.7889L73.7231 8.40162C73.535 8.73747 73.2622 9.01735 72.9424 9.22259C72.585 9.43716 72.1711 9.54911 71.7572 9.53045C71.0612 9.54911 70.4027 9.21326 70.0171 8.64418C69.5844 8.06577 69.368 7.26346 69.368 6.23725C69.3586 5.64018 69.4621 5.05244 69.669 4.50202C69.8384 4.03556 70.1394 3.63441 70.5344 3.32654C70.9201 3.04667 71.3904 2.8974 71.8795 2.90673C72.6038 2.88807 73.281 3.22392 73.7137 3.80233V0.359863L74.2781 0.434497ZM72.9236 8.72814C73.2528 8.46693 73.5256 8.14973 73.7137 7.77657V4.3994C73.2528 3.7277 72.6696 3.39185 71.9547 3.39185C71.381 3.38252 70.8354 3.6624 70.5062 4.13818C70.1393 4.63263 69.9606 5.32299 69.9606 6.20926C69.9606 7.11419 70.1299 7.81388 70.4592 8.30833C70.7884 8.80278 71.2493 9.05467 71.8325 9.05467C72.2181 9.06399 72.6038 8.95204 72.9236 8.72814Z" fill="#0E44E1"/>
<path d="M35.741 12.1986C36.1549 12.805 36.3524 13.654 36.3524 14.7455C36.3618 15.3612 36.2583 15.9676 36.0326 16.5367C35.8445 17.0311 35.5341 17.4603 35.1202 17.7775C34.7251 18.076 34.2454 18.2346 33.7469 18.2253C33.0979 18.2253 32.5805 18.0014 32.1855 17.5629V20.5109L29.9938 20.7348V11.4989H31.9315L32.0256 12.1799C32.2513 11.8814 32.5523 11.6482 32.8909 11.4896C33.2013 11.3496 33.54 11.275 33.8786 11.275C34.7063 11.2937 35.3177 11.5922 35.741 12.1986ZM34.0855 14.7735C34.0855 14.0364 34.0103 13.5327 33.8598 13.2715C33.7281 13.0196 33.4647 12.861 33.1731 12.8796C32.7781 12.8796 32.4488 13.1035 32.1761 13.5607V16.1728C32.2795 16.3314 32.4112 16.462 32.5617 16.5647C32.7028 16.6486 32.8627 16.6859 33.032 16.6859C33.7281 16.6766 34.0761 16.0422 34.0855 14.7735Z" fill="#0E44E1"/>
<path d="M42.504 16.5367C42.5793 16.6579 42.6922 16.7512 42.8332 16.7979L42.3912 18.1973C42.0337 18.1786 41.6857 18.0946 41.3659 17.936C41.0837 17.7868 40.858 17.5536 40.7169 17.2737C40.303 17.9081 39.6352 18.2253 38.7322 18.2253C38.0831 18.2253 37.5658 18.0387 37.1801 17.6562C36.7945 17.2737 36.597 16.7886 36.597 16.1822C36.597 15.4638 36.8603 14.9134 37.3965 14.5309C37.9326 14.1484 38.7039 13.9525 39.7104 13.9618H40.2748V13.7379C40.2748 13.3927 40.1995 13.1502 40.049 13.0196C39.8985 12.889 39.6352 12.833 39.2495 12.833C38.9955 12.8423 38.7322 12.8703 38.4782 12.9263C38.1584 12.9916 37.848 13.0755 37.5376 13.1782L37.0579 11.7788C37.4623 11.6109 37.895 11.4896 38.3277 11.4056C38.7416 11.3217 39.1648 11.2843 39.5881 11.275C40.5758 11.275 41.2906 11.4709 41.7421 11.8534C42.1936 12.2359 42.4194 12.833 42.4194 13.626V15.9956C42.4006 16.1915 42.4382 16.3687 42.504 16.5367ZM39.8985 16.5647C40.049 16.4714 40.1807 16.3408 40.2748 16.1822V15.128H39.9079C39.5129 15.128 39.2213 15.2026 39.0332 15.3425C38.845 15.4825 38.751 15.697 38.751 15.9862C38.7416 16.1728 38.798 16.3594 38.9203 16.5087C39.0426 16.6393 39.2213 16.7139 39.4 16.7046C39.5787 16.7139 39.748 16.6579 39.8985 16.5647Z" fill="#0E44E1"/>
<path d="M47.2259 18.0107C46.9532 18.8783 46.5017 19.55 45.862 20.0071C45.2224 20.4643 44.3853 20.7162 43.3412 20.7535L43.106 19.2515C43.7268 19.1862 44.1971 19.0649 44.4981 18.8783C44.8274 18.6731 45.0719 18.3652 45.213 18.0014H44.4605L42.5417 11.4989H44.865L45.862 16.6486L47.0096 11.4989H49.2577L47.2259 18.0107Z" fill="#0E44E1"/>
<path d="M58.4475 11.8068C58.7579 12.152 58.9178 12.6278 58.9178 13.2435V18.0107H56.7262V13.626C56.7262 13.1222 56.5757 12.8703 56.2841 12.8703C55.9925 12.8703 55.7103 13.1222 55.4469 13.6166V18.0107H53.2553V13.626C53.2553 13.1222 53.1048 12.8703 52.8132 12.8703C52.5216 12.8703 52.2394 13.1222 51.976 13.6166V18.0107H49.7844V11.5082H51.6939L51.8538 12.2266C52.0795 11.9281 52.3711 11.6948 52.7003 11.5176C53.0295 11.359 53.3964 11.275 53.7538 11.2843C54.0736 11.275 54.3934 11.3683 54.6662 11.5362C54.939 11.7135 55.1459 11.9654 55.2588 12.2639C55.494 11.956 55.7949 11.7042 56.1336 11.5269C56.4722 11.359 56.839 11.2843 57.2153 11.2843C57.6762 11.275 58.1277 11.4616 58.4475 11.8068Z" fill="#0E44E1"/>
<path d="M65.6244 15.3892H61.6174C61.6738 15.8836 61.8149 16.2288 62.0406 16.4061C62.2664 16.5833 62.5862 16.6766 63.0095 16.6766C63.2634 16.6766 63.508 16.63 63.7432 16.5367C64.0253 16.4247 64.2887 16.2755 64.5333 16.1075L65.4269 17.3017C65.0694 17.5909 64.6744 17.8241 64.2417 17.9827C63.7808 18.1506 63.2917 18.2346 62.8025 18.2346C61.6832 18.2346 60.8367 17.9267 60.2629 17.3017C59.6891 16.6766 59.3975 15.8463 59.3975 14.7921C59.3881 14.1764 59.5104 13.57 59.7643 13.0102C59.9901 12.4971 60.3663 12.0587 60.8461 11.7508C61.3258 11.4429 61.8995 11.2843 62.5674 11.2843C63.5268 11.2843 64.2887 11.5829 64.8437 12.1706C65.3986 12.7584 65.6808 13.5887 65.6808 14.6522C65.662 14.7082 65.6526 14.9507 65.6244 15.3892ZM63.508 14.0458C63.4986 13.6166 63.4233 13.2808 63.2917 13.0476C63.1506 12.8143 62.9154 12.6931 62.5862 12.6931C62.3134 12.6744 62.0594 12.7957 61.8995 13.0102C61.7396 13.2248 61.6456 13.5887 61.608 14.1204H63.5174V14.0458H63.508Z" fill="#0E44E1"/>
<path d="M71.428 11.8068C71.7478 12.152 71.9077 12.6277 71.9077 13.2435V18.0107H69.7161V13.626C69.7161 13.3368 69.6784 13.1408 69.5938 13.0289C69.5091 12.9169 69.368 12.8516 69.227 12.861C68.8789 12.861 68.5591 13.1129 68.2393 13.6073V18.0014H66.0477V11.4989H67.9571L68.117 12.2266C68.371 11.9281 68.6908 11.6855 69.0388 11.5082C69.3774 11.3496 69.7349 11.275 70.1111 11.275C70.6661 11.2937 71.1082 11.4616 71.428 11.8068Z" fill="#0E44E1"/>
<path d="M77.4762 17.6935C77.2034 17.8801 76.9118 18.0107 76.592 18.0947C76.2722 18.1786 75.943 18.2253 75.6043 18.2253C74.0899 18.2253 73.328 17.395 73.328 15.7344V12.9916H72.4815V11.4989H73.328V10.1275L75.5197 9.87564V11.5082H77.0059L76.7895 13.0009H75.5197V15.725C75.5197 16.0142 75.5667 16.2288 75.6608 16.3501C75.7642 16.4807 75.9241 16.546 76.084 16.5367C76.3192 16.5367 76.5449 16.4714 76.7519 16.3501L77.4762 17.6935Z" fill="#0E44E1"/>
<path d="M81.7936 11.5082C82.198 11.6389 82.5649 11.8441 82.8941 12.1053L82.104 13.2994C81.6337 12.9916 81.0787 12.8237 80.5143 12.8143C80.3356 12.805 80.1569 12.8423 80.0064 12.917C79.9029 12.9729 79.8371 13.0849 79.8371 13.2062C79.8371 13.2994 79.8653 13.3927 79.9218 13.4674C80.0252 13.5607 80.1475 13.6353 80.2886 13.6819C80.4767 13.7566 80.7683 13.8592 81.1634 13.9805C81.8312 14.1764 82.3297 14.4283 82.6495 14.7455C82.9694 15.0627 83.1293 15.5011 83.1293 16.0609C83.1387 16.4807 82.9976 16.8819 82.7436 17.2177C82.4614 17.5629 82.0946 17.8241 81.6713 17.9827C81.1822 18.1693 80.6554 18.2626 80.1287 18.2532C79.5925 18.2532 79.0658 18.1693 78.5579 17.992C78.097 17.8334 77.6831 17.5909 77.3257 17.2644L78.3697 16.1075C78.6143 16.3034 78.8965 16.462 79.1881 16.574C79.4703 16.6859 79.7619 16.7419 80.0629 16.7419C80.2698 16.7512 80.4861 16.7139 80.6743 16.6113C80.8153 16.5367 80.9 16.3874 80.8906 16.2288C80.9 16.1169 80.8624 16.0142 80.7965 15.9209C80.7025 15.8277 80.5802 15.753 80.4485 15.7064C80.2792 15.6411 79.9782 15.5385 79.5643 15.4172C78.2945 15.044 77.6549 14.3536 77.6549 13.3554C77.6549 12.9823 77.7677 12.6184 77.9935 12.3106C78.2381 11.9747 78.5673 11.7228 78.9435 11.5642C79.4138 11.3776 79.9218 11.2843 80.4297 11.2937C80.8906 11.2843 81.3515 11.359 81.7936 11.5082Z" fill="#0E44E1"/>
</g>
<defs>
<linearGradient id="paint0_linear_6_17" x1="9.09898" y1="7.95197" x2="20.2011" y2="7.13833" gradientUnits="userSpaceOnUse">
<stop stop-color="#0E44E1"/>
<stop offset="1" stop-color="#0D33B8"/>
</linearGradient>
<linearGradient id="paint1_linear_6_17" x1="5.98022" y1="14.9701" x2="16.795" y2="10.4988" gradientUnits="userSpaceOnUse">
<stop stop-color="#0E44E1"/>
<stop offset="1" stop-color="#041669"/>
</linearGradient>
<linearGradient id="paint2_linear_6_17" x1="8.80786" y1="9.03704" x2="20.8284" y2="15.9172" gradientUnits="userSpaceOnUse">
<stop stop-color="#0E44E1"/>
<stop offset="1" stop-color="#0D33B8"/>
</linearGradient>
<linearGradient id="paint3_linear_6_17" x1="0.13862" y1="19.0564" x2="25.6771" y2="19.0564" gradientUnits="userSpaceOnUse">
<stop stop-color="#0D33B8"/>
<stop offset="1" stop-color="#0E44E1"/>
</linearGradient>
<clipPath id="clip0_6_17">
<rect width="83" height="21" fill="white" transform="translate(0.138672 0.359863)"/>
</clipPath>
</defs>
</svg>
